<?xml version="1.0" encoding="UTF-8"?>
<svg id="a" data-name="Capa 1" xmlns="http://www.w3.org/2000/svg" viewBox="0 0 24.14 24.15">
  <defs>
    <style>
      .b {
        fill: #fff;
        stroke-width: 0px;
      }
    </style>
  </defs>
  <path class="b" d="M0,19.94h1.4v-2.86h4.29v-4.29h-1.38v-4.25h1.39c.59-3.2,2.46-5.12,5.68-5.72V0h4.23v1.41h-2.81v1.4c3.18.6,5.06,2.5,5.66,5.71h1.39v4.25h-1.37v4.29h4.26v2.85h1.41v4.23H0v-4.21ZM7.08,21.36H1.43v1.36h21.29v-1.37h-5.65v-1.42h4.23v-1.39H2.84v1.41h4.25v1.42ZM7.19,8.5h9.78c-.36-2.45-2.46-4.28-4.89-4.28-2.43,0-4.55,1.85-4.88,4.28ZM5.73,11.35h12.69v-1.36H5.73v1.36ZM8.49,17.06v-4.25h-1.37v4.25h1.37ZM9.98,12.8v4.25h1.36v-4.25h-1.36ZM12.8,12.8v4.25h1.36v-4.25h-1.36ZM15.66,12.8v4.25h1.36v-4.25h-1.36Z"/>
</svg>