<?xml version="1.0" encoding="UTF-8"?>
<svg id="a" data-name="Capa 1" xmlns="http://www.w3.org/2000/svg" viewBox="0 0 28.04 24.1">
  <defs>
    <style>
      .b {
        fill: #fff;
        stroke-width: 0px;
      }
    </style>
  </defs>
  <path class="b" d="M13.84,6.98c.3-.2.63-.41.94-.64.06-.04.09-.16.09-.24-.02-1.1.25-2.12.83-3.04.54-.85,1.38-1.3,2.32-1.57.65-.19,1.3-.33,1.96-.48.38-.09.75-.19,1.09-.42.35-.24.82.01.82.43,0,1.02-.08,2.02-.37,3.01-.68,2.26-2.45,3.5-4.82,3.33-.39-.03-.78-.13-1.18-.19-.05,0-.12,0-.17.02-.61.28-1.06.7-1.18,1.39,0,.04-.01.07,0,.11.08.92.02,1.83-.09,2.75,0,.02,0,.04.01.09.24.02.47.04.71.06,1.09.1,2.15.34,3.17.72.17.06.28.03.41-.09.55-.5,1.13-.95,1.8-1.29.39-.2.8-.37,1.25-.34.24.01.47.11.71.16.09.02.2.03.27-.01.39-.23.8-.41,1.26-.48.37-.05.72-.02,1.05.18.05.03.17,0,.23-.03.44-.3.9-.54,1.44-.59,1-.08,1.73.64,1.66,1.64-.08,1.12-.56,2.09-1.21,2.98-.84,1.16-1.9,2.1-3.01,3-1.59,1.29-3.25,2.5-4.98,3.59-.19.12-.38.24-.55.38-.64.52-1.37.64-2.17.53-1.4-.19-2.8-.37-4.2-.54-.98-.12-1.96-.21-2.93-.31-.07,0-.17.04-.23.09-1.19.91-2.38,1.83-3.57,2.75-.19.15-.39.21-.62.12-.39-.16-.45-.56-.12-.82.96-.74,1.92-1.49,2.88-2.23.26-.2.51-.41.77-.6.32-.24.68-.34,1.08-.3,1.63.17,3.27.33,4.9.5.96.1,1.91.22,2.87.31.11.01.24-.05.35-.12,2.38-1.49,4.74-2.99,6.82-4.9,1.06-.98,1.99-2.07,2.62-3.38.15-.32.26-.68.32-1.03.08-.48-.16-.68-.64-.58-.42.09-.8.29-1.11.57-1.12,1.01-2.22,2.04-3.33,3.07-.05.05-.09.14-.09.21.01.79-.35,1.39-.94,1.87-.67.53-1.45.82-2.27,1.03-1.94.49-3.91.61-5.9.61-.16,0-.31,0-.47-.01-.32-.02-.51-.23-.49-.54.01-.3.2-.47.53-.46,1.59.03,3.17-.06,4.74-.26.84-.11,1.67-.27,2.44-.62.44-.2.84-.45,1.1-.86.17-.27.34-.54.16-.88-.06-.11-.04-.3-.12-.35-.18-.12-.39-.21-.61-.24-.71-.11-1.41,0-2.08.2-.48.14-.95.34-1.41.54-.6.26-1.19.27-1.78,0-1.29-.57-2.63-.93-4.02-1.17-.79-.14-1.59-.17-2.38.04-1.18.31-2.1,1.04-2.71,2.06-.62,1.04-1.53,1.72-2.47,2.41-.8.58-1.6,1.15-2.39,1.73-.28.21-.5.2-.68-.03-.2-.25-.17-.59.09-.79.4-.31.82-.61,1.23-.91.86-.64,1.73-1.27,2.59-1.91.13-.09.24-.22.32-.35.39-.62.79-1.23,1.33-1.74.51-.48,1.08-.86,1.73-1.1.82-.3,1.64-.59,2.46-.87.96-.32,1.95-.49,2.96-.56.1,0,.21,0,.22-.15.12-1.14.23-2.28,0-3.43-.08-.43-.22-.83-.55-1.14-.13-.12-.26-.16-.45-.12-1.82.35-3.48.09-4.83-1.31-.55-.57-.82-1.31-1.04-2.06-.27-.93-.33-1.89-.33-2.86,0-.38.49-.66.8-.42.63.47,1.36.6,2.09.74.65.13,1.31.23,1.91.54.9.46,1.52,1.16,1.84,2.12.22.65.42,1.32.37,2.02-.02.27.06.41.24.59.27.27.47.6.69.89ZM20.87,1.84c-.24.07-.43.13-.63.18-.68.16-1.36.3-2.03.48-1.12.3-1.83,1.03-2.1,2.16-.11.46-.11.95-.17,1.43-.02.19.07.24.24.24.8,0,1.58-.05,2.35-.26.62-.17,1.12-.53,1.47-1.08.6-.95.79-2.01.87-3.14ZM6.91,1.36c.09,1.18.29,2.32.99,3.3.23.32.53.56.88.72.91.41,1.89.45,2.87.44.15,0,.19-.08.18-.21-.03-.37-.02-.74-.09-1.1-.22-1.28-.91-2.17-2.2-2.51-.86-.23-1.74-.42-2.64-.63ZM11.87,12.7c1.29.26,2.52.68,3.73,1.19.06.02.14.01.21,0,.45-.16.9-.33,1.35-.51.08-.03.14-.11.25-.2-1.85-.62-3.67-.78-5.54-.47ZM24,11.22c-.62-.07-2.54,1.38-2.92,2.15.11.09.22.19.35.3.85-.81,1.69-1.61,2.57-2.45ZM19.16,12.94c.24,0,.48,0,.72,0,.09,0,.2-.04.26-.11.3-.3.59-.62.88-.93.09-.09.18-.18.27-.27-.01-.02-.03-.03-.04-.05-.84.21-1.47.78-2.09,1.36Z"/>
</svg>