<?xml version="1.0" encoding="UTF-8"?>
<svg id="Capa_1" data-name="Capa 1" xmlns="http://www.w3.org/2000/svg" viewBox="0 0 27.37 23.72">
  <defs>
    <style>
      .cls-1 {
        fill: #fff;
        stroke-width: 0px;
      }
    </style>
  </defs>
  <path class="cls-1" d="M5.47,21.91c0,.15,0,.28,0,.42,0,.3-.19.49-.48.49-1.63,0-3.27,0-4.9,0-.03,0-.05,0-.08,0v-10.95s.05,0,.08,0c1.64,0,3.28,0,4.91,0,.28,0,.47.19.47.47,0,.14,0,.28,0,.44h.11c1.62,0,3.25,0,4.87,0,.1,0,.2.02.29.07,1.84.92,3.69,1.84,5.53,2.76.6.3.99.78,1.15,1.43,0,.01,0,.03.01.04,0,0,0,0,.01.02.03,0,.06-.02.09-.03,2.3-.84,4.6-1.68,6.9-2.51,1.28-.46,2.65.32,2.91,1.66.2,1.01-.35,2.03-1.32,2.43-1.16.48-2.32.96-3.48,1.44-2.88,1.19-5.76,2.38-8.64,3.57-.12.05-.24.06-.37.02-2.07-.59-4.15-1.18-6.22-1.77-.04-.01-.08-.02-.12-.02-.55,0-1.1,0-1.64,0-.02,0-.04,0-.07,0ZM5.47,20.99s.06,0,.09,0c.57,0,1.13,0,1.7,0,.06,0,.13,0,.19.03,2.04.58,4.09,1.16,6.13,1.74.04.01.1,0,.14,0,1.44-.59,2.87-1.19,4.31-1.78,1.93-.8,3.85-1.59,5.78-2.39.63-.26,1.27-.52,1.9-.79.56-.24.85-.85.72-1.45-.13-.57-.66-.99-1.25-.99-.2,0-.39.06-.58.13-2.37.86-4.75,1.73-7.12,2.59-.05.02-.08.05-.09.1-.38,1.21-1.7,1.83-2.87,1.34-1.37-.57-2.74-1.14-4.11-1.71-.02-.01-.05-.02-.08-.04.12-.28.23-.56.35-.84.03.01.05.02.08.03.72.3,1.45.6,2.17.9.66.27,1.31.55,1.97.82.8.32,1.68-.27,1.67-1.14,0-.5-.24-.87-.69-1.1-1.81-.91-3.62-1.81-5.43-2.71-.04-.02-.09-.03-.14-.03-1.58,0-3.16,0-4.75,0h-.09v7.3Z"/>
  <path class="cls-1" d="M18.69,13.69c-3.78,0-6.86-3.09-6.83-6.88C11.88,3.03,14.97-.04,18.78,0c3.75.04,6.8,3.13,6.76,6.92-.04,3.74-3.1,6.77-6.85,6.77ZM18.7.91c-3.27,0-5.94,2.68-5.93,5.94,0,3.27,2.67,5.93,5.93,5.93,3.27,0,5.94-2.68,5.93-5.93,0-3.28-2.67-5.94-5.94-5.93Z"/>
  <path class="cls-1" d="M19.16,10.05s0,.06,0,.09c0,.25,0,.5,0,.75,0,.05-.01.08-.07.08-.26,0-.52,0-.78,0-.06,0-.07-.02-.07-.08,0-.25,0-.49,0-.74,0-.03,0-.06,0-.09-.12-.01-.23-.02-.34-.04-.81-.14-1.45-.88-1.49-1.7q0-.1.09-.1c.24,0,.49,0,.73,0,.03,0,.05,0,.09,0,0,.04.01.08.02.12.06.44.41.77.86.79.33.01.66.01,1,0,.49-.02.87-.43.87-.91,0-.49-.39-.89-.88-.9-.31,0-.62,0-.93,0-1.08,0-1.91-.89-1.84-1.97.06-.91.83-1.65,1.74-1.69.02,0,.05,0,.08,0,0-.03,0-.06,0-.09,0-.25,0-.5,0-.75,0-.06.01-.08.08-.08.25,0,.51,0,.76,0,.06,0,.08.02.08.08,0,.25,0,.49,0,.74,0,.03,0,.06,0,.09.12.01.23.02.34.04.82.14,1.45.87,1.49,1.7q0,.1-.1.1c-.24,0-.49,0-.73,0-.03,0-.05,0-.08,0-.01-.08-.02-.16-.04-.24-.12-.38-.37-.62-.76-.66-.38-.03-.76-.03-1.14,0-.48.04-.82.47-.8.93.02.48.4.85.88.87.32,0,.63,0,.95,0,.94,0,1.75.75,1.81,1.69.07.96-.61,1.81-1.55,1.95-.08.01-.17.02-.27.03Z"/>
  <path class="cls-1" d="M14.6,6.84c0,.13,0,.26,0,.39,0,.05-.01.07-.07.07-.26,0-.52,0-.78,0-.06,0-.07-.02-.07-.07,0-.26,0-.52,0-.78,0-.06.02-.07.08-.07.26,0,.51,0,.77,0,.06,0,.08.02.08.08,0,.13,0,.25,0,.38Z"/>
  <path class="cls-1" d="M23.72,6.85c0,.13,0,.25,0,.38,0,.05-.01.08-.07.08-.26,0-.52,0-.78,0-.06,0-.07-.02-.07-.08,0-.26,0-.51,0-.77,0-.05.01-.08.07-.08.26,0,.52,0,.78,0,.06,0,.07.02.07.08,0,.13,0,.26,0,.39Z"/>
</svg>