<?xml version="1.0" encoding="UTF-8"?>
<svg id="Capa_1" data-name="Capa 1" xmlns="http://www.w3.org/2000/svg" viewBox="0 0 25.78 27.89">
  <defs>
    <style>
      .cls-1 {
        fill: #fff;
        stroke-width: 0px;
      }
    </style>
  </defs>
  <path class="cls-1" d="M24.05,1.1c-.26-.31-.55-.59-.21-.94.34-.35.63-.08.91.19.06-.05.12-.09.17-.13.25-.2.51-.24.73,0,.23.25.15.51-.07.73-.98.99-1.97,1.97-2.95,2.96-1.51,1.51-3.02,3.01-4.52,4.53-.12.12-.15.34-.24.5-.1.19-.18.39-.33.54-.58.61-1.19,1.19-1.78,1.79-.53.53-.51.95.08,1.37,1.65,1.19,3.46,1.56,5.44,1.11.6-.14.76-.04.87.55.17.91.34,1.82.49,2.74.06.36-.12.56-.48.65-1.59.38-3.2.43-4.78.01-1.12-.3-2.2-.78-3.39-1.21-.46.46-1.03,1.02-1.57,1.6-.08.08-.09.29-.06.42.29,1.06.59,2.12.9,3.17.12.41.01.67-.39.82-.54.21-1.07.46-1.6.67-.44.18-.63.1-.82-.34-.3-.69-.61-1.38-.87-2.08-.24-.65-.72-.98-1.38-1.18-.45,1-.89,1.99-1.33,2.98-.71,1.59-1.41,3.18-2.13,4.76-.28.63-.48.7-1.06.34-1.09-.67-2.17-1.34-3.26-2.02-.51-.32-.55-.55-.19-1.02.88-1.15,1.79-2.28,2.65-3.46.39-.53.84-.88,1.47-1.06.19-.05.39-.23.5-.41.3-.5.53-1.03.82-1.53.31-.54.51-1.08.47-1.73-.02-.21.12-.49.27-.65,2.92-2.94,5.84-5.86,8.78-8.78.13-.13.4-.29.51-.24.38.18.53-.08.72-.27.82-.82,1.65-1.63,2.46-2.46.27-.28.53-.34.89-.17.33.16.71.43,1.03.38.29-.05.53-.46.79-.71.81-.81,1.62-1.62,2.46-2.45ZM8.19,18.34c.77-.77,1.47-1.48,2.18-2.19,1.25-1.25,2.51-2.5,3.76-3.76.29-.29.43-.84.25-1.05-.32-.37-.67-.72-1.02-1.09-2.08,2.08-4.1,4.07-6.08,6.12-.17.17-.14.71,0,.97.19.37.57.65.91,1ZM3.95,26.68c1.14-2.56,2.26-5.07,3.37-7.59.03-.08,0-.22-.04-.29-.13-.2-.28-.39-.48-.65-.44.85-.81,1.53-1.14,2.21-.17.35-.4.57-.79.67-.32.09-.71.2-.91.44-.94,1.14-1.82,2.33-2.74,3.51.9.56,1.78,1.11,2.73,1.69ZM13.41,14.58c2.12,2.11,5.77,2.86,8.16,2.19-.11-.64-.23-1.29-.34-1.97-2.41.42-4.55-.12-6.39-1.66-.49.49-.94.95-1.42,1.44ZM11.25,22.12c.23-.09.44-.19.66-.27.25-.09.33-.2.23-.48-.24-.7-.46-1.41-.61-2.13-.15-.73-.52-1.27-1.08-1.67-.44.44-.88.87-1.32,1.32,1.4.59,1.45,2.09,2.13,3.23ZM15.04,10.51c.51-.51,1.02-1.02,1.5-1.49-.3-.32-.62-.65-.91-.96-.51.51-1.02,1.02-1.52,1.51.31.31.62.62.93.94ZM20.07,5c-.32,0-.6-.09-.71.01-.89.84-1.76,1.72-2.65,2.6.15.16.27.28.35.36.99-.98,1.94-1.92,3.01-2.98ZM13.28,15.82c-.23-.2-.42-.36-.62-.53-.18.16-.32.29-.45.4.22.22.4.4.57.57.16-.14.32-.28.5-.44ZM11.16,16.78c.19.21.36.4.54.6.13-.14.23-.25.26-.28-.17-.24-.31-.45-.47-.68-.15.16-.24.26-.34.36Z"/>
  <path class="cls-1" d="M8.75,16.7c-.09-.07-.28-.15-.33-.28-.06-.15-.05-.4.05-.51.32-.37.66-.73,1.04-1.03.12-.1.43-.08.57.02.12.08.22.43.15.51-.37.44-.78.83-1.19,1.23-.04.04-.14.03-.28.06Z"/>
</svg>