<?xml version="1.0" encoding="UTF-8"?>
<svg id="Capa_1" data-name="Capa 1" xmlns="http://www.w3.org/2000/svg" viewBox="0 0 21.55 21.58">
  <defs>
    <style>
      .cls-1 {
        fill: #fff;
        stroke-width: 0px;
      }
    </style>
  </defs>
  <path class="cls-1" d="M7.1,9.94c-.15-.08-.31-.16-.47-.24,1.93-1.29,1.94-3.8.61-5.17-1.3-1.34-3.45-1.36-4.79-.06-1.37,1.34-1.41,3.94.55,5.23-1.72.79-2.72,2.11-3.01,3.97v2.45c.14.19.32.25.53.25,1.59,0,3.18,0,4.77,0,.28,0,.55,0,.83,0,.28,0,.47-.17.47-.43,0-.24-.19-.41-.45-.42-.06,0-.12,0-.18,0-1.43,0-2.85,0-4.28,0h-.85c0-.5-.01-.97,0-1.45.05-1.62,1.05-3.04,2.57-3.61,1.12-.42,2.23-.34,3.29.22.28.15.53.09.64-.15.12-.23.03-.45-.25-.6ZM4.95,9.36c-1.41.06-2.62-1.06-2.63-2.48-.01-1.4,1.08-2.52,2.49-2.54,1.34-.02,2.49,1.09,2.52,2.43.03,1.38-1.06,2.53-2.37,2.58Z"/>
  <path class="cls-1" d="M21.55,16.22c-.17.05-.34.14-.52.14-1.8.01-3.6,0-5.41,0-.06,0-.12,0-.18,0-.25-.02-.43-.2-.42-.43,0-.23.17-.41.42-.41.51,0,1.02,0,1.52,0,1.19,0,2.38,0,3.57,0,.07,0,.14,0,.22,0,.01-.04.03-.06.03-.08-.01-.59.02-1.18-.04-1.76-.2-1.92-1.91-3.44-3.85-3.46-.69,0-1.33.15-1.94.46-.05.03-.11.06-.16.07-.21.07-.42-.02-.52-.21-.09-.19-.03-.42.16-.54.18-.11.37-.2.57-.3-1.04-.75-1.6-1.74-1.54-3.02.04-.89.4-1.65,1.05-2.26,1.37-1.29,3.52-1.2,4.77.17,1.35,1.48,1.17,3.9-.66,5.12.06.03.11.07.17.09,1.42.68,2.33,1.78,2.71,3.31,0,.04.03.07.04.11v3.01ZM19.32,6.83c0-1.37-1.14-2.5-2.5-2.5-1.4,0-2.52,1.13-2.51,2.52,0,1.4,1.13,2.5,2.56,2.49,1.35,0,2.46-1.15,2.45-2.52Z"/>
  <path class="cls-1" d="M11.29,0c.29.09.59.15.86.27,1.38.6,2.18,2.02,1.99,3.5-.19,1.5-1.35,2.68-2.86,2.9-1.45.21-2.89-.58-3.51-1.93-.91-1.97.31-4.32,2.45-4.7.04,0,.09-.03.13-.04.32,0,.63,0,.95,0ZM13.32,3.35c0-1.36-1.11-2.5-2.44-2.51-1.43,0-2.56,1.08-2.57,2.48,0,1.41,1.1,2.53,2.52,2.53,1.37,0,2.48-1.12,2.49-2.5Z"/>
  <path class="cls-1" d="M12.66,14.88c.4.26.82.48,1.18.77,1.17.95,1.76,2.2,1.8,3.71.01.57,0,1.15,0,1.72,0,.34-.15.49-.5.49-2.27,0-4.54,0-6.81,0-.61,0-1.21,0-1.82,0-.35,0-.5-.16-.51-.51,0-.56-.01-1.12,0-1.68.07-2.01,1.01-3.47,2.81-4.37.06-.03.12-.06.2-.1-1.12-.8-1.66-1.88-1.52-3.24.09-.89.5-1.62,1.19-2.19,1.4-1.15,3.46-.98,4.63.34,1.25,1.4,1.19,3.83-.65,5.07ZM14.78,20.72c0-.46,0-.9,0-1.33,0-2.31-1.94-4-4.01-3.96-1.74.03-3.28,1.16-3.76,2.83-.1.34-.14.7-.16,1.05-.03.46,0,.93,0,1.41h7.94ZM10.83,14.56c1.4,0,2.5-1.11,2.49-2.51,0-1.38-1.13-2.5-2.52-2.5-1.38,0-2.5,1.14-2.49,2.52.01,1.4,1.12,2.49,2.52,2.48Z"/>
</svg>