<?xml version="1.0" encoding="UTF-8"?>
<svg id="a" data-name="Capa 1" xmlns="http://www.w3.org/2000/svg" viewBox="0 0 22.15 26.15">
  <defs>
    <style>
      .b {
        fill: #fff;
        stroke-width: 0px;
      }
    </style>
  </defs>
  <path class="b" d="M6.61,14.87c.26,1.13,1.1,1.65,2.07,1.98,1.66.57,3.33.55,4.98-.07.91-.34,1.66-.87,1.9-1.94,1.54.15,2.88.71,4.02,1.7,1.92,1.68,2.78,3.8,2.54,6.34-.14,1.49-.95,2.5-2.4,2.86-.9.22-1.85.36-2.77.37-3.91.04-7.82.04-11.72,0-.93,0-1.87-.15-2.77-.38-1.45-.36-2.23-1.37-2.4-2.86-.46-3.98,2.64-7.8,6.57-8.01Z"/>
  <path class="b" d="M5.51,5.95c.12-2.18,1.09-3.8,3.06-4.91.15.83.29,1.58.43,2.34.05.3.09.66.5.6.45-.07.37-.43.31-.75-.14-.74-.27-1.49-.4-2.24-.1-.59.14-.92.74-.96.62-.04,1.24-.03,1.85,0,.6.03.84.36.74.95-.13.77-.27,1.53-.41,2.29-.06.32-.08.67.32.68.16,0,.43-.31.48-.52.19-.77.3-1.55.46-2.4,1.96,1.12,2.95,2.73,3.06,4.91.19.05.42.03.51.14.21.24.48.54.46.8-.02.26-.34.52-.58.71-.13.1-.38.06-.58.06-3.59,0-7.17,0-10.76,0-.16,0-.32,0-.48-.02-.45-.08-.72-.34-.73-.81,0-.43.24-.7.65-.81.11-.03.23-.04.36-.06Z"/>
  <path class="b" d="M5.55,8.46h.6c.26.91.41,1.83.78,2.65.37.82.87,1.63,1.48,2.28,1.56,1.64,3.75,1.61,5.36.02,1.23-1.21,1.8-2.75,2.08-4.41.03-.17.06-.35.09-.54.12-.01.22-.03.32-.03.09,0,.19.02.37.03-.39,2.66-1.17,5.06-3.62,6.5-1.28.75-2.66.72-3.93-.06-2.38-1.46-3.14-3.82-3.52-6.45Z"/>
</svg>