<?xml version="1.0" encoding="UTF-8"?>
<svg id="a" data-name="Capa 1" xmlns="http://www.w3.org/2000/svg" viewBox="0 0 21.23 25.34">
  <defs>
    <style>
      .b {
        fill: #fff;
        stroke-width: 0px;
      }
    </style>
  </defs>
  <path class="b" d="M.03,8.15c0-1.11,0-2.21,0-3.32,0-.86.25-1.14,1.13-1.15,1.3-.02,2.58-.18,3.84-.53,1.79-.49,3.36-1.38,4.71-2.64.74-.68,1.08-.69,1.82,0,1.95,1.81,4.27,2.77,6.9,3.05.6.06,1.21.07,1.82.11.66.05.96.34.97.99,0,2.24.06,4.48-.04,6.71-.11,2.69-.7,5.29-2.08,7.65-1.49,2.55-3.69,4.29-6.34,5.5-.56.26-1.13.5-1.72.71-.21.08-.5.12-.7.05-2.39-.84-4.59-2-6.38-3.85-1.88-1.94-2.95-4.28-3.49-6.9C.02,12.44-.05,10.3.03,8.15ZM19.41,5.43c-3.29-.13-6.26-1.13-8.78-3.34-2.52,2.2-5.49,3.21-8.8,3.34-.02.14-.04.25-.04.35.04,2.25.02,4.51.15,6.75.12,1.92.65,3.77,1.61,5.46,1.46,2.57,3.71,4.18,6.39,5.28.46.19.85.2,1.34,0,4.71-1.89,7.38-5.32,7.99-10.37.29-2.42.22-4.85.18-7.27,0-.05-.02-.1-.04-.2Z"/>
  <path class="b" d="M9.39,13.89c1.41-1.41,2.77-2.77,4.14-4.14.27-.27.55-.48.96-.38.58.13.87.73.59,1.25-.09.16-.22.31-.35.44-1.49,1.5-2.99,3-4.49,4.49-.61.61-1.06.61-1.66.01-.71-.7-1.43-1.4-2.11-2.13-.2-.22-.39-.56-.38-.84.01-.69.81-1.02,1.38-.62.13.09.25.21.36.32.51.52,1.02,1.04,1.56,1.58Z"/>
</svg>